# xmcd
#
# Track frame offsets:
#	150
#	13557
#	27852
#	42699
#	60760
#	75205
#	88863
#	102662
#	118768
#	133471
#
# Disc length: 1989 seconds
#
# Revision: 1
# Processed by: cddbd v1.5.2PL0 Copyright (c) Steve Scherf et al.
# Submitted via: audiograbber 1.83.01
#
DISCID=7f07c30a
DTITLE=T. Graham Brown - All His Best
DYEAR=1900
DGENRE=Country
TTITLE0=Brilliant Conversationalist
TTITLE1=Come As You Were
TTITLE2=Darlene
TTITLE3=Don't  Go To Strangers
TTITLE4=Hell And High Water
TTITLE5=I Tell It Like It Used To Be
TTITLE6=I Wish That I Could Hurt That Way Again
TTITLE7=Power Of Love
TTITLE8=She Couldn't Love Me Anymore
TTITLE9=The Last Resort
EXTD=
EXTT0=
EXTT1=
EXTT2=
EXTT3=
EXTT4=
EXTT5=
EXTT6=
EXTT7=
EXTT8=
EXTT9=
PLAYORDER=
